<svg version="1.1" xmlns="http://www.w3.org/2000/svg" xmlns:xlink="http://www.w3.org/1999/xlink" width="175.85561" height="30.0203" viewBox="0,0,175.85561,30.0203"><g transform="translate(-229.4777,-27.35496)"><g data-paper-data="{&quot;isPaintingLayer&quot;:true}" fill-rule="nonzero" stroke-linejoin="miter" stroke-miterlimit="10" stroke-dasharray="" stroke-dashoffset="0" style="mix-blend-mode: normal"><path d="M230.7277,51.3691c0,-5.65118 0,-14.71694 0,-17.91453c0,-2.21063 1.7525,-4.8496 3.99056,-4.8496c10.08619,0 141.21183,0 163.12133,0c3.85432,0 6.09717,3.3693 6.09717,5.9804c0,3.02966 0.14656,10.40614 0.14656,15.68183c0,3.35343 -1.82717,5.85807 -4.77813,5.85807c-19.70511,0 -153.19994,0 -164.04732,0c-2.51354,0 -4.53016,-1.96016 -4.53016,-4.75616z" fill="#272727" stroke="#1f1f1f" stroke-width="2.5" stroke-linecap="butt"/><path d="M257.50829,51.79868l-7.47368,-7.47368" fill="none" stroke="#ffffff" stroke-width="4" stroke-linecap="round"/><path d="M239.39027,39.73888c0,-3.7211 3.01654,-6.73764 6.73764,-6.73764c3.7211,0 6.73763,3.01654 6.73763,6.73764c0,3.7211 -3.01654,6.73763 -6.73763,6.73763c-3.7211,0 -6.73764,-3.01654 -6.73764,-6.73763z" fill="#272727" stroke="#ffffff" stroke-width="4" stroke-linecap="butt"/><text transform="translate(272.76287,47.40739) scale(0.41506,0.41506)" font-size="40" xml:space="preserve" fill="#ffffff" fill-rule="nonzero" stroke="none" stroke-width="1" stroke-linecap="butt" stroke-linejoin="miter" stroke-miterlimit="10" stroke-dasharray="" stroke-dashoffset="0" font-family="Sans Serif" font-weight="normal" text-anchor="start" style="mix-blend-mode: normal"><tspan x="0" dy="0">Search here...</tspan></text></g></g></svg>