<svg version="1.1" xmlns="http://www.w3.org/2000/svg" xmlns:xlink="http://www.w3.org/1999/xlink" width="78.90831" height="24.82736" viewBox="0,0,78.90831,24.82736"><defs><radialGradient cx="312.15682" cy="185.28625" r="9.58173" gradientUnits="userSpaceOnUse" id="color-1"><stop offset="0" stop-color="#ffffff"/><stop offset="1" stop-color="#ffffff" stop-opacity="0"/></radialGradient></defs><g transform="translate(-280.54585,-167.58636)"><g data-paper-data="{&quot;isPaintingLayer&quot;:true}" fill-rule="nonzero" stroke-linecap="butt" stroke-linejoin="miter" stroke-miterlimit="10" stroke-dasharray="" stroke-dashoffset="0" style="mix-blend-mode: normal"><path d="M280.54585,186.31102c0,-7.27072 0,-8.44216 0,-12.54492c0,-2.82104 2.85979,-6.17973 5.94137,-6.17973c8.17256,0 45.76396,0 63.56709,0c5.72199,0 9.39985,3.98692 9.39985,7.16071c0,3.30224 0,1.93087 0,8.40183c0,5.8654 -4.56538,9.26482 -8.57336,9.26482c-16.05853,0 -55.02809,0 -63.90309,0c-3.30373,0 -6.43186,-2.51446 -6.43186,-6.1027z" fill="#006b22" stroke="none" stroke-width="0"/><path d="M325.51199,187.8376c-4.32858,3.04418 -10.30537,2.00296 -13.34956,-2.32562c-3.04418,-4.32858 -2.00297,-10.30538 2.32562,-13.34956c4.32858,-3.04418 10.30537,-2.00296 13.34956,2.32562c3.04418,4.32858 2.00297,10.30538 -2.32562,13.34956z" fill="none" stroke="url(#color-1)" stroke-width="3.5"/></g></g></svg>