<svg version="1.1" xmlns="http://www.w3.org/2000/svg" xmlns:xlink="http://www.w3.org/1999/xlink" width="155.25432" height="32.59263" viewBox="0,0,155.25432,32.59263"><g transform="translate(-242.37284,-163.77586)"><g data-paper-data="{&quot;isPaintingLayer&quot;:true}" fill-rule="nonzero" stroke-linecap="butt" stroke-linejoin="miter" stroke-miterlimit="10" stroke-dasharray="" stroke-dashoffset="0" style="mix-blend-mode: normal"><path d="M244.62284,186.00336h150.75432v2.4814c0,3.11142 -3.5817,5.63373 -8,5.63373h-134.75432c-4.41828,0 -8,-2.5223 -8,-5.63373z" data-paper-data="{&quot;index&quot;:null}" fill="#000000" stroke="#000000" stroke-width="4.5"/><path d="M244.62284,183.81924c0,-3.11142 3.58172,-5.63373 8,-5.63373h134.75432c4.4183,0 8,2.5223 8,5.63373v4.30896h-150.75432z" data-paper-data="{&quot;index&quot;:null}" fill="#000000" stroke="#000000" stroke-width="4.5"/><g fill="#1b1b1b" stroke="none" stroke-width="1"><path d="M305.93044,186.02942h28.13911v2.04647c0,2.56605 -0.66854,4.64625 -1.49324,4.64625h-25.15263c-0.8247,0 -1.49324,-2.0802 -1.49324,-4.64625z" data-paper-data="{&quot;index&quot;:null}"/><path d="M305.93044,184.22811c0,-2.56605 0.66855,-4.64625 1.49324,-4.64625h25.15263c0.8247,0 1.49324,2.0802 1.49324,4.64625v3.55368h-28.13911z" data-paper-data="{&quot;index&quot;:null}"/></g><g fill="#1b1b1b" stroke="none" stroke-width="1"><path d="M335.34221,186.02942h28.13911v2.04646c0,2.56605 -0.66854,4.64625 -1.49324,4.64625h-25.15263c-0.8247,0 -1.49324,-2.08019 -1.49324,-4.64625z" data-paper-data="{&quot;index&quot;:null}"/><path d="M335.34221,184.22812c0,-2.56605 0.66854,-4.64625 1.49324,-4.64625h25.15263c0.8247,0 1.49324,2.08019 1.49324,4.64625v3.55368h-28.13911z" data-paper-data="{&quot;index&quot;:null}"/></g><g fill="#1b1b1b" stroke="none" stroke-width="1"><path d="M246.70945,186.02942h28.13911v2.04647c0,2.56605 -0.66854,4.64625 -1.49324,4.64625h-25.15263c-0.8247,0 -1.49324,-2.0802 -1.49324,-4.64625z" data-paper-data="{&quot;index&quot;:null}"/><path d="M246.70945,184.22811c0,-2.56605 0.66855,-4.64625 1.49324,-4.64625h25.15263c0.8247,0 1.49324,2.0802 1.49324,4.64625v3.55368h-28.13911z" data-paper-data="{&quot;index&quot;:null}"/></g><g fill="#1b1b1b" stroke="none" stroke-width="1"><path d="M276.51868,186.02942h28.13911v2.04646c0,2.56605 -0.66854,4.64625 -1.49324,4.64625h-25.15263c-0.8247,0 -1.49324,-2.08019 -1.49324,-4.64625z" data-paper-data="{&quot;index&quot;:null}"/><path d="M276.51868,184.22812c0,-2.56605 0.66854,-4.64625 1.49324,-4.64625h25.15263c0.8247,0 1.49324,2.08019 1.49324,4.64625v3.55368h-28.13911z" data-paper-data="{&quot;index&quot;:null}"/></g><g fill="#313131" stroke="none" stroke-width="1"><path d="M364.75398,186.02942h28.13911v2.04646c0,2.56605 -0.66854,4.64625 -1.49324,4.64625h-25.15263c-0.8247,0 -1.49324,-2.08019 -1.49324,-4.64625z" data-paper-data="{&quot;index&quot;:null}"/><path d="M364.75398,184.22812c0,-2.56605 0.66854,-4.64625 1.49324,-4.64625h25.15263c0.8247,0 1.49324,2.08019 1.49324,4.64625v3.55368h-28.13911z" data-paper-data="{&quot;index&quot;:null}"/></g><text transform="translate(251.53513,174.08145) scale(0.23691,0.23691)" font-size="40" xml:space="preserve" fill="#ffffff" fill-rule="nonzero" stroke="none" stroke-width="1" stroke-linecap="butt" stroke-linejoin="miter" stroke-miterlimit="10" stroke-dasharray="" stroke-dashoffset="0" font-family="Sans Serif" font-weight="normal" text-anchor="start" style="mix-blend-mode: normal"><tspan x="0" dy="0">Grid size</tspan></text><text transform="translate(314.0549,189.61413) scale(0.2666,0.2666)" font-size="40" xml:space="preserve" fill="#ffffff" fill-rule="nonzero" stroke="none" stroke-width="1" stroke-linecap="butt" stroke-linejoin="miter" stroke-miterlimit="10" stroke-dasharray="" stroke-dashoffset="0" font-family="Sans Serif" font-weight="normal" text-anchor="start" style="mix-blend-mode: normal"><tspan x="0" dy="0">1x</tspan></text><text transform="translate(343.58242,189.91901) scale(0.28187,0.28187)" font-size="40" xml:space="preserve" fill="#ffffff" fill-rule="nonzero" stroke="none" stroke-width="1" stroke-linecap="butt" stroke-linejoin="miter" stroke-miterlimit="10" stroke-dasharray="" stroke-dashoffset="0" font-family="Sans Serif" font-weight="normal" text-anchor="start" style="mix-blend-mode: normal"><tspan x="0" dy="0">2x</tspan></text><text transform="translate(372.54136,189.83046) scale(0.27398,0.27398)" font-size="40" xml:space="preserve" fill="#ffffff" fill-rule="nonzero" stroke="none" stroke-width="1" stroke-linecap="butt" stroke-linejoin="miter" stroke-miterlimit="10" stroke-dasharray="" stroke-dashoffset="0" font-family="Sans Serif" font-weight="normal" text-anchor="start" style="mix-blend-mode: normal"><tspan x="0" dy="0">4x</tspan></text><text transform="translate(281.2657,189.16249) scale(0.238,0.238)" font-size="40" xml:space="preserve" fill="#ffffff" fill-rule="nonzero" stroke="none" stroke-width="1" stroke-linecap="butt" stroke-linejoin="miter" stroke-miterlimit="10" stroke-dasharray="" stroke-dashoffset="0" font-family="Sans Serif" font-weight="normal" text-anchor="start" style="mix-blend-mode: normal"><tspan x="0" dy="0">0.5x</tspan></text><text transform="translate(248.55143,189.13398) scale(0.24186,0.24186)" font-size="40" xml:space="preserve" fill="#ffffff" fill-rule="nonzero" stroke="none" stroke-width="1" stroke-linecap="butt" stroke-linejoin="miter" stroke-miterlimit="10" stroke-dasharray="" stroke-dashoffset="0" font-family="Sans Serif" font-weight="normal" text-anchor="start" style="mix-blend-mode: normal"><tspan x="0" dy="0">0.25x</tspan></text></g></g></svg>