<svg version="1.1" xmlns="http://www.w3.org/2000/svg" xmlns:xlink="http://www.w3.org/1999/xlink" width="721.12211" height="75.05748" viewBox="0,0,721.12211,75.05748"><g transform="translate(41.79868,31.22112)"><g data-paper-data="{&quot;isPaintingLayer&quot;:true}" fill-rule="nonzero" stroke="none" stroke-linecap="butt" stroke-linejoin="miter" stroke-miterlimit="10" stroke-dasharray="" stroke-dashoffset="0" style="mix-blend-mode: normal"><path d="M-33.12301,-0.44919h706.24601v35.63373c0,4.41828 -3.5817,8 -8,8h-690.24601c-4.41828,0 -8,-3.58172 -8,-8z" data-paper-data="{&quot;index&quot;:null}" fill="#101010" stroke-width="1"/><path d="M-33.12301,-12.00035h706.24601v35.63373c0,4.41828 -3.5817,8 -8,8h-690.24601c-4.41828,0 -8,-3.58172 -8,-8z" data-paper-data="{&quot;index&quot;:null}" fill="#1d1d1d" stroke-width="1"/><path d="M-41.79868,-2.34323v-28.87789h721.12211v28.87789z" fill="#000000" stroke-width="0"/><g stroke-width="1"><path d="M67.30589,43.13207h-62.10186v-4.07869c0,-4.2994 3.5817,-7.78476 8,-7.78476h46.10187c4.41828,0 8,3.48536 8,7.78476z" data-paper-data="{&quot;index&quot;:null}" fill="#1d1d1d"/><text transform="translate(56.56446,40.27226) scale(0.22104,0.17083)" font-size="40" xml:space="preserve" fill="#ffffff" fill-rule="nonzero" stroke="none" stroke-width="1" stroke-linecap="butt" stroke-linejoin="miter" stroke-miterlimit="10" stroke-dasharray="" stroke-dashoffset="0" font-family="Sans Serif" font-weight="normal" text-anchor="start" style="mix-blend-mode: normal"><tspan x="0" dy="0">X</tspan></text><text transform="translate(22.39792,41.09224) scale(0.21953,0.21953)" font-size="40" xml:space="preserve" fill="#ffffff" fill-rule="nonzero" stroke="none" stroke-width="1" stroke-linecap="butt" stroke-linejoin="miter" stroke-miterlimit="10" stroke-dasharray="" stroke-dashoffset="0" font-family="Sans Serif" font-weight="normal" text-anchor="start" style="mix-blend-mode: normal"><tspan x="0" dy="0">Game</tspan></text></g></g></g></svg>