<svg version="1.1" xmlns="http://www.w3.org/2000/svg" xmlns:xlink="http://www.w3.org/1999/xlink" width="386.64967" height="297.82107" viewBox="0,0,386.64967,297.82107"><defs><radialGradient cx="262.14531" cy="248.39466" r="115.3628" gradientUnits="userSpaceOnUse" id="color-1"><stop offset="0" stop-color="#000000" stop-opacity="0.0902"/><stop offset="1" stop-color="#000000" stop-opacity="0"/></radialGradient><radialGradient cx="192.59198" cy="333.24815" r="54.95133" gradientUnits="userSpaceOnUse" id="color-2"><stop offset="0" stop-color="#000000" stop-opacity="0.0902"/><stop offset="1" stop-color="#000000" stop-opacity="0"/></radialGradient><radialGradient cx="401.14219" cy="227.75926" r="111.22678" gradientUnits="userSpaceOnUse" id="color-3"><stop offset="0" stop-color="#000000" stop-opacity="0.0902"/><stop offset="1" stop-color="#000000" stop-opacity="0"/></radialGradient><radialGradient cx="401.14219" cy="332.3654" r="111.22678" gradientUnits="userSpaceOnUse" id="color-4"><stop offset="0" stop-color="#000000" stop-opacity="0.0902"/><stop offset="1" stop-color="#000000" stop-opacity="0"/></radialGradient><linearGradient x1="194.99642" y1="313.95523" x2="194.99642" y2="332.0903" gradientUnits="userSpaceOnUse" id="color-5"><stop offset="0" stop-color="#000000" stop-opacity="0"/><stop offset="1" stop-color="#000000" stop-opacity="0.19216"/></linearGradient><linearGradient x1="194.99643" y1="144.11485" x2="194.99643" y2="125.97979" gradientUnits="userSpaceOnUse" id="color-6"><stop offset="0" stop-color="#000000" stop-opacity="0"/><stop offset="1" stop-color="#000000" stop-opacity="0.19216"/></linearGradient></defs><g transform="translate(-129.52349,-108.99542)"><g data-paper-data="{&quot;isPaintingLayer&quot;:true}" fill-rule="nonzero" stroke-linejoin="miter" stroke-miterlimit="10" stroke-dasharray="" stroke-dashoffset="0" style="mix-blend-mode: normal"><path d="M129.58506,122.7492h386.58811c0,0 0,255.5499 0,272.24453c0,4.57449 0,8.74192 0,8.74192h-386.58811z" data-paper-data="{&quot;index&quot;:null}" fill="#282828" stroke="none" stroke-width="1" stroke-linecap="butt"/><path d="M129.58506,114.81322c0,-3.21308 2.60471,-5.8178 5.8178,-5.8178h374.95251c3.2131,0 5.8178,2.60471 5.8178,5.8178v11.35061h-386.58811z" data-paper-data="{&quot;index&quot;:null}" fill="#121212" stroke="none" stroke-width="1" stroke-linecap="butt"/><path d="M129.58506,389.09519h386.58811v11.9035c0,3.21309 -2.6047,5.8178 -5.8178,5.8178h-374.95251c-3.21309,0 -5.8178,-2.60472 -5.8178,-5.8178z" data-paper-data="{&quot;index&quot;:null}" fill="#1a1a1a" stroke="none" stroke-width="1" stroke-linecap="butt"/><path d="M494.36392,114.81322c0,-3.21308 2.60471,-5.8178 5.8178,-5.8178h10.17365c3.2131,0 5.8178,2.60471 5.8178,5.8178v11.35061h-21.80925z" data-paper-data="{&quot;index&quot;:null}" fill="#1c1c1c" stroke="none" stroke-width="1" stroke-linecap="butt"/><text transform="translate(502.67846,120.41345) scale(0.30145,0.20777)" font-size="40" xml:space="preserve" fill="#ffffff" fill-rule="nonzero" stroke="none" stroke-width="1" stroke-linecap="butt" stroke-linejoin="miter" stroke-miterlimit="10" stroke-dasharray="" stroke-dashoffset="0" font-family="Sans Serif" font-weight="normal" text-anchor="start" style="mix-blend-mode: normal"><tspan x="0" dy="0">X</tspan></text><path d="M262.14531,133.03186v197.09465" fill="none" stroke="url(#color-1)" stroke-width="4" stroke-linecap="round"/><path d="M247.54331,333.24815h-109.90265" fill="none" stroke="url(#color-2)" stroke-width="4" stroke-linecap="round"/><path d="M512.36897,227.75926h-222.45356" fill="none" stroke="url(#color-3)" stroke-width="4" stroke-linecap="round"/><text transform="translate(281.52927,152.51394) scale(0.25053,0.25053)" font-size="40" xml:space="preserve" fill="#ffffff" fill-rule="nonzero" stroke="none" stroke-width="1" stroke-linecap="butt" stroke-linejoin="miter" stroke-miterlimit="10" stroke-dasharray="" stroke-dashoffset="0" font-family="Sans Serif" font-weight="normal" text-anchor="start" style="mix-blend-mode: normal"><tspan x="0" dy="0">Your offer</tspan></text><text transform="translate(281.08789,244.76155) scale(0.25053,0.25053)" font-size="40" xml:space="preserve" fill="#ffffff" fill-rule="nonzero" stroke="none" stroke-width="1" stroke-linecap="butt" stroke-linejoin="miter" stroke-miterlimit="10" stroke-dasharray="" stroke-dashoffset="0" font-family="Sans Serif" font-weight="normal" text-anchor="start" style="mix-blend-mode: normal"><tspan x="0" dy="0">Their offer</tspan></text><path d="M289.91541,332.3654h222.45356" fill="none" stroke="url(#color-4)" stroke-width="4" stroke-linecap="round"/><path d="M129.5235,332.0903v-18.13507h130.94585v18.13507z" fill="url(#color-5)" stroke="none" stroke-width="NaN" stroke-linecap="butt"/><path d="M260.46935,125.97979v18.13507h-130.94586v-18.13507z" data-paper-data="{&quot;index&quot;:null}" fill="url(#color-6)" stroke="none" stroke-width="none" stroke-linecap="butt"/></g></g></svg>