<svg version="1.1" xmlns="http://www.w3.org/2000/svg" xmlns:xlink="http://www.w3.org/1999/xlink" width="75.0552" height="35.36018" viewBox="0,0,75.0552,35.36018"><g transform="translate(-281.48674,-144.4992)"><g data-paper-data="{&quot;isPaintingLayer&quot;:true}" fill-rule="nonzero" stroke-linecap="butt" stroke-linejoin="miter" stroke-miterlimit="10" stroke-dasharray="" stroke-dashoffset="0" style="mix-blend-mode: normal"><path d="M281.48674,179.78303c0,0 0,1.10996 0,-5.13459c0,-8.5079 0,-30.14924 0,-30.14924h75.0552v35.28383z" fill="none" stroke="none" stroke-width="0"/><path d="M286.06272,155.76394h64.77174v13.03886c0,3.35898 -2.72298,6.08198 -6.08198,6.08198h-52.60779c-3.35898,0 -6.08198,-2.72299 -6.08198,-6.08198z" data-paper-data="{&quot;index&quot;:null}" fill="#1f1f1f" stroke="none" stroke-width="0"/><path d="M286.06272,155.47943c0,-3.35898 2.72299,-6.08198 6.08198,-6.08198h52.6078c3.35901,0 6.08198,2.72299 6.08198,6.08198v13.03886h-64.77174z" fill="#1f1f1f" stroke="none" stroke-width="0"/><path d="M288.5802,157.26466h59.73677v10.01175c0,2.93789 -2.38161,5.31951 -5.31951,5.31951h-49.09775c-2.93789,0 -5.31951,-2.38162 -5.31951,-5.31951z" data-paper-data="{&quot;index&quot;:null}" fill="#272727" stroke="none" stroke-width="0"/><path d="M288.5802,157.08536c0,-2.93789 2.38162,-5.31951 5.31951,-5.31951h49.09775c2.93789,0 5.31951,2.38162 5.31951,5.31951v10.01175h-59.73677z" fill="#272727" stroke="none" stroke-width="0"/><text transform="translate(316.40301,165.99711) scale(0.31815,0.31815)" font-size="40" xml:space="preserve" fill="#ffffff" fill-rule="nonzero" stroke="none" stroke-width="1" stroke-linecap="butt" stroke-linejoin="miter" stroke-miterlimit="10" stroke-dasharray="" stroke-dashoffset="0" font-family="Sans Serif" font-weight="normal" text-anchor="start" style="mix-blend-mode: normal"><tspan x="0" dy="0">Back</tspan></text><path d="M302.86737,168.64322c-0.94574,-0.94574 -4.62103,-4.62103 -6.10842,-6.10842c-0.39042,-0.39042 -0.45051,-0.8097 -0.14973,-1.11047c1.32597,-1.32597 5.00712,-5.00712 6.03927,-6.03927c0.52058,-0.52058 1.148,-0.48189 1.148,0.16909c0,1.77089 -0.03103,10.04143 -0.04217,12.95399c-0.00244,0.63732 -0.45472,0.5673 -0.88693,0.13508z" fill="#ffffff" stroke="#ffffff" stroke-width="4"/></g></g></svg>