<svg version="1.1" xmlns="http://www.w3.org/2000/svg" xmlns:xlink="http://www.w3.org/1999/xlink" width="328.48109" height="248.10897" viewBox="0,0,328.48109,248.10897"><g transform="translate(-187.6921,-108.99542)"><g data-paper-data="{&quot;isPaintingLayer&quot;:true}" fill-rule="nonzero" stroke="none" stroke-linecap="butt" stroke-linejoin="miter" stroke-miterlimit="10" stroke-dasharray="" stroke-dashoffset="0" style="mix-blend-mode: normal"><path d="M187.82984,320.19952v-174.29922h139.77089v174.29923z" fill="#1e1e1e" stroke-width="0"/><path d="M343.42682,122.7492h171.78273c0,0 0,205.8378 0,222.53243c0,4.57449 0,8.74192 0,8.74192h-171.78273z" data-paper-data="{&quot;index&quot;:null}" fill="#1e1e1e" stroke-width="1"/><path d="M343.18262,114.81322c0,-3.21308 2.60471,-5.8178 5.8178,-5.8178h161.35497c3.2131,0 5.8178,2.60471 5.8178,5.8178v11.35061h-172.99057z" data-paper-data="{&quot;index&quot;:null}" fill="#121212" stroke-width="1"/><path d="M343.36187,339.38309h172.81131v11.9035c0,3.21309 -2.6047,5.8178 -5.8178,5.8178h-161.17571c-3.21309,0 -5.8178,-2.60472 -5.8178,-5.8178z" data-paper-data="{&quot;index&quot;:null}" fill="#1a1a1a" stroke-width="1"/><path d="M494.36394,114.81322c0,-3.21308 2.60471,-5.8178 5.8178,-5.8178h10.17365c3.2131,0 5.8178,2.60471 5.8178,5.8178v11.35061h-21.80925z" data-paper-data="{&quot;index&quot;:null}" fill="#1c1c1c" stroke-width="1"/><text transform="translate(502.67848,120.41345) scale(0.30145,0.20777)" font-size="40" xml:space="preserve" fill="#ffffff" fill-rule="nonzero" stroke="none" stroke-width="1" stroke-linecap="butt" stroke-linejoin="miter" stroke-miterlimit="10" stroke-dasharray="" stroke-dashoffset="0" font-family="Sans Serif" font-weight="normal" text-anchor="start" style="mix-blend-mode: normal"><tspan x="0" dy="0">X</tspan></text><text transform="translate(359.12305,152.51394) scale(0.25053,0.25053)" font-size="40" xml:space="preserve" fill="#ffffff" fill-rule="nonzero" stroke="none" stroke-width="1" stroke-linecap="butt" stroke-linejoin="miter" stroke-miterlimit="10" stroke-dasharray="" stroke-dashoffset="0" font-family="Sans Serif" font-weight="normal" text-anchor="start" style="mix-blend-mode: normal"><tspan x="0" dy="0">Your offer</tspan></text><text transform="translate(358.68167,244.76155) scale(0.25053,0.25053)" font-size="40" xml:space="preserve" fill="#ffffff" fill-rule="nonzero" stroke="none" stroke-width="1" stroke-linecap="butt" stroke-linejoin="miter" stroke-miterlimit="10" stroke-dasharray="" stroke-dashoffset="0" font-family="Sans Serif" font-weight="normal" text-anchor="start" style="mix-blend-mode: normal"><tspan x="0" dy="0">Their offer</tspan></text><path d="M187.69703,137.52122c0,-3.21308 2.60471,-5.8178 5.8178,-5.8178h128.37033c3.2131,0 5.8178,2.60471 5.8178,5.8178v11.35061h-140.00593z" data-paper-data="{&quot;index&quot;:null}" fill="#121212" stroke-width="1"/><path d="M187.6921,313.60644h140.00438v11.9035c0,3.21309 -2.6047,5.8178 -5.8178,5.8178h-128.36877c-3.21309,0 -5.8178,-2.60472 -5.8178,-5.8178z" data-paper-data="{&quot;index&quot;:null}" fill="#1a1a1a" stroke-width="1"/><path d="M357.25449,207.06927c0,-11.86889 0,-31.76746 0,-38.1802c0,-3.93275 3.69325,-8.38042 8.00858,-8.38042c14.90425,0 100.91693,0 131.50959,0c6.74579,0 10.79697,5.57695 10.79697,9.44098c0,6.46705 0,26.32345 0,37.82668c0,5.04314 -3.02846,8.48077 -9.55964,8.48077c-29.78868,0 -114.94173,0 -130.97932,0c-5.15725,0 -9.77618,-3.75168 -9.77618,-9.18781z" fill="#282828" stroke-width="0"/><path d="M357.25449,300.6413c0,-11.86889 0,-31.76745 0,-38.1802c0,-3.93275 3.69325,-8.38042 8.00858,-8.38042c14.90425,0 100.91693,0 131.50959,0c6.74579,0 10.79697,5.57694 10.79697,9.44098c0,6.46704 0,26.32345 0,37.82668c0,5.04314 -3.02846,8.48077 -9.55965,8.48077c-29.78868,0 -114.94173,0 -130.97931,0c-5.15725,0 -9.77618,-3.75168 -9.77618,-9.18781z" fill="#282828" stroke-width="0"/><path d="M196.81643,300.46071c0,-11.86889 0,-134.8218 0,-141.23455c0,-3.93275 3.69325,-8.38042 8.00858,-8.38042c14.90425,0 74.37785,-0.34466 104.97052,-0.34466c6.74579,0 10.79696,5.57694 10.79696,9.44098c0,6.46705 0,129.37779 0,140.88103c0,5.04314 -3.02846,8.48077 -9.55964,8.48077c-29.78868,0 -88.40266,0.34466 -104.44024,0.34466c-5.15725,0 -9.77618,-3.75168 -9.77618,-9.18781z" fill="#282828" stroke-width="0"/></g></g></svg>