<svg version="1.1" xmlns="http://www.w3.org/2000/svg" xmlns:xlink="http://www.w3.org/1999/xlink" width="682.69559" height="37.87018" viewBox="0,0,682.69559,37.87018"><g transform="translate(24.42608,-39.47436)"><g data-paper-data="{&quot;isPaintingLayer&quot;:true}" fill-rule="nonzero" stroke-linejoin="miter" stroke-miterlimit="10" stroke-dasharray="" stroke-dashoffset="0" style="mix-blend-mode: normal"><path d="M340.50083,66.89735c0,-6.80774 0,-17.72888 0,-21.58088c0,-2.66305 2.11116,-5.84211 4.80726,-5.84211c12.15041,0 101.27133,0 127.66477,0c4.64314,0 7.345,4.05885 7.345,7.20433c0,3.6497 0.17655,12.53583 0.17655,18.89124c0,4.03973 -2.20111,7.05697 -5.75601,7.05697c-23.73791,0 -115.71289,0 -128.78028,0c-3.02795,0 -5.45729,-2.36132 -5.45729,-5.72955z" fill="#151515" stroke="none" stroke-width="0" stroke-linecap="butt"/><path d="M363.75905,58.41163l9.00323,9.00322" fill="none" stroke="#ffffff" stroke-width="4" stroke-linecap="round"/><path d="M350.93627,52.88692c0,-4.48265 3.6339,-8.11655 8.11655,-8.11655c4.48265,0 8.11654,3.6339 8.11654,8.11655c0,4.48265 -3.6339,8.11654 -8.11654,8.11654c-4.48265,0 -8.11655,-3.6339 -8.11655,-8.11654z" fill="#151515" stroke="#ffffff" stroke-width="4" stroke-linecap="butt"/><text transform="translate(391.13882,62.12485) scale(0.5,0.5)" font-size="40" xml:space="preserve" fill="#ffffff" fill-rule="nonzero" stroke="none" stroke-width="1" stroke-linecap="butt" stroke-linejoin="miter" stroke-miterlimit="10" stroke-dasharray="" stroke-dashoffset="0" font-family="Sans Serif" font-weight="normal" text-anchor="start" style="mix-blend-mode: normal"><tspan x="0" dy="0">Search</tspan></text><path d="M-23.42608,76.34454h680.69559" fill="none" stroke="#181818" stroke-width="2" stroke-linecap="round"/></g></g></svg>