<svg version="1.1" xmlns="http://www.w3.org/2000/svg" xmlns:xlink="http://www.w3.org/1999/xlink" width="386.58811" height="297.82107" viewBox="0,0,386.58811,297.82107"><g transform="translate(-129.58506,-108.99542)"><g data-paper-data="{&quot;isPaintingLayer&quot;:true}" fill-rule="nonzero" stroke="none" stroke-width="1" stroke-linecap="butt" stroke-linejoin="miter" stroke-miterlimit="10" stroke-dasharray="" stroke-dashoffset="0" style="mix-blend-mode: normal"><path d="M129.58506,122.7492h386.58811c0,0 0,255.5499 0,272.24453c0,4.57449 0,8.74192 0,8.74192h-386.58811z" data-paper-data="{&quot;index&quot;:null}" fill="#282828"/><path d="M129.58506,114.81322c0,-3.21308 2.60471,-5.8178 5.8178,-5.8178h374.95251c3.2131,0 5.8178,2.60471 5.8178,5.8178v11.35061h-386.58811z" data-paper-data="{&quot;index&quot;:null}" fill="#121212"/><path d="M129.58506,389.09519h386.58811v11.9035c0,3.21309 -2.6047,5.8178 -5.8178,5.8178h-374.95251c-3.21309,0 -5.8178,-2.60472 -5.8178,-5.8178z" data-paper-data="{&quot;index&quot;:null}" fill="#1a1a1a"/><path d="M494.36392,114.81322c0,-3.21308 2.60471,-5.8178 5.8178,-5.8178h10.17365c3.2131,0 5.8178,2.60471 5.8178,5.8178v11.35061h-21.80925z" data-paper-data="{&quot;index&quot;:null}" fill="#1c1c1c"/><text transform="translate(502.67846,120.41345) scale(0.30145,0.20777)" font-size="40" xml:space="preserve" fill="#ffffff" fill-rule="nonzero" stroke="none" stroke-width="1" stroke-linecap="butt" stroke-linejoin="miter" stroke-miterlimit="10" stroke-dasharray="" stroke-dashoffset="0" font-family="Sans Serif" font-weight="normal" text-anchor="start" style="mix-blend-mode: normal"><tspan x="0" dy="0">X</tspan></text></g></g></svg>