<svg version="1.1" xmlns="http://www.w3.org/2000/svg" xmlns:xlink="http://www.w3.org/1999/xlink" width="353.03478" height="248.81028" viewBox="0,0,353.03478,248.81028"><g transform="translate(-82.13073,-85.56706)"><g data-paper-data="{&quot;isPaintingLayer&quot;:true}" fill-rule="nonzero" stroke-linejoin="miter" stroke-miterlimit="10" stroke-dasharray="" stroke-dashoffset="0" style="mix-blend-mode: normal"><path d="M86.05275,330.89969v-36.25823h346.25644v36.25823z" fill="#141414" stroke="none" stroke-width="0" stroke-linecap="butt"/><path d="M85.00891,132.04794c0,0 0.0218,-26.68808 0.94498,-33.88975c0.30231,-2.35832 7.00302,-9.32789 7.00302,-9.32789c0,0 289.69804,-0.34714 323.42947,-0.19561c6.16653,0.0277 12.15253,4.89616 12.15253,4.89616c0,0 3.31286,4.28834 3.44589,6.16779c0.40543,5.72754 -0.71945,32.34929 -0.71945,32.34929z" fill="#141414" stroke="none" stroke-width="0" stroke-linecap="butt"/><path d="M432.66551,331.87734h-348.03478c0,0 0,-197.90145 0,-228.91684c0,-7.91108 6.47653,-14.89344 14.4506,-14.89344c32.62421,0 251.5706,0 315.86525,0c11.21018,0 17.71892,6.39742 17.71892,13.77561c0,30.15027 0,230.03467 0,230.03467z" data-paper-data="{&quot;index&quot;:null}" fill="none" stroke="#1f1f1f" stroke-width="5" stroke-linecap="butt"/><path d="M86.20072,133.32037h344.42065" fill="none" stroke="#1f1f1f" stroke-width="5" stroke-linecap="round"/><path d="M85.05697,293.60634h345.79511" fill="none" stroke="#1f1f1f" stroke-width="5" stroke-linecap="round"/></g></g></svg>