<svg version="1.1" xmlns="http://www.w3.org/2000/svg" xmlns:xlink="http://www.w3.org/1999/xlink" width="360.3223" height="112.71355" viewBox="0,0,360.3223,112.71355"><g transform="translate(-258.14401,-123.64323)"><g data-paper-data="{&quot;isPaintingLayer&quot;:true}" fill-rule="nonzero" stroke="none" stroke-width="0" stroke-linecap="butt" stroke-linejoin="miter" stroke-miterlimit="10" stroke-dasharray="" stroke-dashoffset="0" style="mix-blend-mode: normal"><path d="M340.93622,236.35677v-112.71353h267.97186c5.27887,0 9.55823,4.27934 9.55823,9.55823v93.59708c0,5.27887 -4.27936,9.55823 -9.55823,9.55823z" data-paper-data="{&quot;index&quot;:null}" fill="#151515"/><path d="M267.70224,236.35677c-5.27887,0 -9.55823,-4.27936 -9.55823,-9.55823v-93.59708c0,-5.27889 4.27936,-9.55823 9.55823,-9.55823h114.15375v112.71354z" fill="#151515"/><path d="M274.5211,229.47997c-5.03287,0 -9.11281,-4.07994 -9.11281,-9.11281v-80.10155c0,-5.03289 4.07994,-9.1128 9.11281,-9.1128h98.54438v98.32713z" data-paper-data="{&quot;index&quot;:null}" fill="#0c0c0c"/><path d="M349.72673,229.47995v-98.32713l252.36249,0.00001c5.03287,0 9.11281,4.0799 9.11281,9.1128v80.10155c0,5.03287 -4.07994,9.11281 -9.11281,9.11281z" data-paper-data="{&quot;index&quot;:null}" fill="#0c0c0c"/></g></g></svg>