<svg version="1.1" xmlns="http://www.w3.org/2000/svg" xmlns:xlink="http://www.w3.org/1999/xlink" width="220.87902" height="142.00916" viewBox="0,0,220.87902,142.00916"><g transform="translate(-209.56049,-108.99542)"><g data-paper-data="{&quot;isPaintingLayer&quot;:true}" fill-rule="nonzero" stroke="none" stroke-width="1" stroke-linecap="butt" stroke-linejoin="miter" stroke-miterlimit="10" stroke-dasharray="" stroke-dashoffset="0" style="mix-blend-mode: normal"><path d="M209.56049,122.7492h220.87902v125.17454h-220.87902z" data-paper-data="{&quot;index&quot;:null}" fill="#282828"/><path d="M209.56049,114.81322c0,-3.21308 2.60471,-5.8178 5.8178,-5.8178h209.24342c3.2131,0 5.8178,2.60471 5.8178,5.8178v11.35061h-220.87902z" data-paper-data="{&quot;index&quot;:null}" fill="#121212"/><path d="M209.56049,243.1209h220.87902v2.06588c0,3.21309 -2.6047,5.8178 -5.8178,5.8178h-209.24342c-3.21309,0 -5.8178,-2.60472 -5.8178,-5.8178z" data-paper-data="{&quot;index&quot;:null}" fill="#282828"/><path d="M408.63026,114.81322c0,-3.21308 2.60471,-5.8178 5.8178,-5.8178h10.17365c3.2131,0 5.8178,2.60471 5.8178,5.8178v11.35061h-21.80925z" data-paper-data="{&quot;index&quot;:null}" fill="#1c1c1c"/><text transform="translate(415.66519,120.41345) scale(0.30145,0.20777)" font-size="40" xml:space="preserve" fill="#ffffff" fill-rule="nonzero" stroke="none" stroke-width="1" stroke-linecap="butt" stroke-linejoin="miter" stroke-miterlimit="10" stroke-dasharray="" stroke-dashoffset="0" font-family="Sans Serif" font-weight="normal" text-anchor="start" style="mix-blend-mode: normal"><tspan x="0" dy="0">X</tspan></text></g></g></svg>