<svg version="1.1" xmlns="http://www.w3.org/2000/svg" xmlns:xlink="http://www.w3.org/1999/xlink" width="390.20433" height="59.37142" viewBox="0,0,390.20433,59.37142"><defs><linearGradient x1="342.542" y1="200.83799" x2="342.542" y2="214.68571" gradientUnits="userSpaceOnUse" id="color-1"><stop offset="0" stop-color="#000000" stop-opacity="0.48235"/><stop offset="1" stop-color="#000000" stop-opacity="0"/></linearGradient></defs><g transform="translate(-207.84078,-155.31429)"><g data-paper-data="{&quot;isPaintingLayer&quot;:true}" fill-rule="nonzero" stroke="none" stroke-linecap="butt" stroke-linejoin="miter" stroke-miterlimit="10" stroke-dasharray="" stroke-dashoffset="0" style="mix-blend-mode: normal"><path d="M207.8408,214.68571v-13.84772h389.79281l-0.01258,13.84772z" data-paper-data="{&quot;index&quot;:null}" fill="url(#color-1)" stroke-width="NaN"/><path d="M207.84078,206.6417v-50.68092h210.93541l9.3458,50.68092z" data-paper-data="{&quot;index&quot;:null}" fill="#ffc370" stroke-width="NaN"/><path d="M257.37351,207.93466l9.34579,-52.62037h331.32581v52.62037z" data-paper-data="{&quot;index&quot;:null}" fill="#1f1f1f" stroke-width="NaN"/><text transform="translate(300.12051,190.81302) scale(0.72745,0.72745)" font-size="40" xml:space="preserve" fill="#ffffff" fill-rule="nonzero" stroke="none" stroke-width="1" stroke-linecap="butt" stroke-linejoin="miter" stroke-miterlimit="10" stroke-dasharray="" stroke-dashoffset="0" font-family="Sans Serif" font-weight="normal" text-anchor="start" style="mix-blend-mode: normal"><tspan x="0" dy="0">User</tspan></text><path d="M222.75982,170.72823c0,-6.03634 4.89342,-10.92975 10.92975,-10.92975c6.03634,0 10.92975,4.89342 10.92975,10.92975c0,6.03634 -4.89342,10.92975 -10.92975,10.92975c-6.03634,0 -10.92975,-4.89342 -10.92975,-10.92975z" fill="#ffffff" stroke-width="0"/><path d="M217.17502,196.64379c0,-6.03634 10.39751,-16.43385 16.43385,-16.43385c6.03634,0 16.43385,10.39751 16.43385,16.43385c0,6.03634 -10.39751,5.42566 -16.43385,5.42566c-6.03634,0 -16.43385,0.61067 -16.43385,-5.42566z" fill="#ffffff" stroke-width="0"/></g></g></svg>