<svg version="1.1" xmlns="http://www.w3.org/2000/svg" xmlns:xlink="http://www.w3.org/1999/xlink" width="63.11739" height="57.38578" viewBox="0,0,63.11739,57.38578"><g transform="translate(-290.84426,-153.50993)"><g data-paper-data="{&quot;isPaintingLayer&quot;:true}" fill-rule="nonzero" stroke-linejoin="miter" stroke-miterlimit="10" stroke-dasharray="" stroke-dashoffset="0" style="mix-blend-mode: normal"><path d="M290.84426,163.39033h63.11739v37.94715c0,5.27887 -4.27934,9.55823 -9.55823,9.55823h-44.00093c-5.27887,0 -9.55823,-4.27936 -9.55823,-9.55823z" data-paper-data="{&quot;index&quot;:null}" fill="#212121" stroke="none" stroke-width="0" stroke-linecap="butt"/><path d="M290.84426,163.06816c0,-5.27887 4.27936,-9.55823 9.55823,-9.55823h44.00093c5.27889,0 9.55823,4.27936 9.55823,9.55823v37.94715h-63.11739z" fill="#212121" stroke="none" stroke-width="0" stroke-linecap="butt"/><g fill="#ffffff" stroke="#ffffff" stroke-width="4" stroke-linecap="round"><path d="M317.02667,173.67387c0,0 -4.35677,0 -5.9151,0c-0.81194,0 -1.19464,-0.65783 -0.68237,-1.1701c0.97988,-0.97988 4.28137,-4.28137 4.28137,-4.28137c0,0 3.37734,3.37733 4.36775,4.36775c0.51052,0.51052 0.51695,1.16051 0.00983,1.16051c-0.98912,0 -4.37757,0 -4.37757,0v19.34889"/><path d="M327.30357,170.84632v19.3489c0,0 3.38844,0 4.37757,0c0.50712,0 0.5007,0.64999 -0.00982,1.16051c-0.99041,0.99042 -4.36775,4.36775 -4.36775,4.36775c0,0 -3.30149,-3.30149 -4.28137,-4.28137c-0.51227,-0.51227 -0.12957,-1.1701 0.68237,-1.1701c1.55833,0 5.9151,0 5.9151,0" data-paper-data="{&quot;index&quot;:null}"/></g></g></g></svg>