<svg version="1.1" xmlns="http://www.w3.org/2000/svg" xmlns:xlink="http://www.w3.org/1999/xlink" width="220.87902" height="142.00916" viewBox="0,0,220.87902,142.00916"><g transform="translate(-209.56049,-108.99542)"><g data-paper-data="{&quot;isPaintingLayer&quot;:true}" fill-rule="nonzero" stroke="none" stroke-linecap="butt" stroke-linejoin="miter" stroke-miterlimit="10" stroke-dasharray="" stroke-dashoffset="0" style="mix-blend-mode: normal"><path d="M209.56049,122.7492h220.87902v125.17454h-220.87902z" data-paper-data="{&quot;index&quot;:null}" fill="#282828" stroke-width="1"/><path d="M209.56049,114.81322c0,-3.21308 2.60471,-5.8178 5.8178,-5.8178h209.24342c3.2131,0 5.8178,2.60471 5.8178,5.8178v11.35061h-220.87902z" data-paper-data="{&quot;index&quot;:null}" fill="#121212" stroke-width="1"/><path d="M209.56049,243.1209h220.87902v2.06588c0,3.21309 -2.6047,5.8178 -5.8178,5.8178h-209.24342c-3.21309,0 -5.8178,-2.60472 -5.8178,-5.8178z" data-paper-data="{&quot;index&quot;:null}" fill="#282828" stroke-width="1"/><path d="M408.63026,114.81322c0,-3.21308 2.60471,-5.8178 5.8178,-5.8178h10.17365c3.2131,0 5.8178,2.60471 5.8178,5.8178v11.35061h-21.80925z" data-paper-data="{&quot;index&quot;:null}" fill="#1c1c1c" stroke-width="1"/><text transform="translate(242.60908,142.69413) scale(0.29562,0.29562)" font-size="40" xml:space="preserve" fill="#ffffff" fill-rule="nonzero" stroke="none" stroke-width="1" stroke-linecap="butt" stroke-linejoin="miter" stroke-miterlimit="10" stroke-dasharray="" stroke-dashoffset="0" font-family="Sans Serif" font-weight="normal" text-anchor="start" style="mix-blend-mode: normal"><tspan x="0" dy="0">Please read our terms and</tspan><tspan x="0" dy="46.150000000000006px">conditions before playing.</tspan></text><path d="M222.86215,196.89852c0,-5.62254 0,-15.72573 0,-18.68231c0,-1.59995 2.69501,-3.32121 5.68423,-3.32121c9.25918,0 57.87521,0 74.14748,0c3.35053,0 5.16194,2.1655 5.16194,4.05384c0,2.95797 0,11.86725 0,17.33914c0,2.62955 -1.71103,4.4653 -4.63607,4.4653c-15.61531,0 -65.82935,0 -75.02393,0c-2.82483,0 -5.33365,-1.55139 -5.33365,-3.85477z" fill="#1e1e1e" stroke-width="0"/><text transform="translate(228.56343,191.04633) scale(0.29065,0.29065)" font-size="40" xml:space="preserve" fill="#ffffff" fill-rule="nonzero" stroke="none" stroke-width="1" stroke-linecap="butt" stroke-linejoin="miter" stroke-miterlimit="10" stroke-dasharray="" stroke-dashoffset="0" font-family="Sans Serif" font-weight="normal" text-anchor="start" style="mix-blend-mode: normal"><tspan x="0" dy="0">Privacy Policy</tspan></text><path d="M330.75265,196.89852c0,-5.62253 0,-15.72573 0,-18.68231c0,-1.59994 2.695,-3.3212 5.68423,-3.3212c9.25918,0 57.87522,0 74.14749,0c3.35053,0 5.16195,2.1655 5.16195,4.05384c0,2.95798 0,11.86725 0,17.33914c0,2.62956 -1.71103,4.4653 -4.63608,4.4653c-15.61531,0 -65.82935,0 -75.02393,0c-2.82483,0 -5.33366,-1.5514 -5.33366,-3.85477z" fill="#1e1e1e" stroke-width="0"/><text transform="translate(336.45392,191.04633) scale(0.29065,0.29065)" font-size="40" xml:space="preserve" fill="#ffffff" fill-rule="nonzero" stroke="none" stroke-width="1" stroke-linecap="butt" stroke-linejoin="miter" stroke-miterlimit="10" stroke-dasharray="" stroke-dashoffset="0" font-family="Sans Serif" font-weight="normal" text-anchor="start" style="mix-blend-mode: normal"><tspan x="0" dy="0">Cookie Policy</tspan></text><path d="M225.28868,219.78012c0,-3.21994 0,-7.63072 0,-9.65701c0,-1.96457 2.60775,-4.69505 4.03587,-4.69505c1.8162,0 6.25924,0 9.65701,0c2.44131,0 4.34301,2.4642 4.34301,4.30355c0,2.01198 0,6.70914 0,10.04851c0,2.11399 -1.72333,3.68383 -3.16851,3.68383c-2.06944,0 -7.89991,0 -11.61451,0c-1.90454,0 -3.25287,-1.64133 -3.25287,-3.68383z" fill="#333333" stroke-width="0"/><text transform="translate(247.07798,217.93621) scale(0.23764,0.23764)" font-size="40" xml:space="preserve" fill="#424242" fill-rule="nonzero" stroke="none" stroke-width="1" stroke-linecap="butt" stroke-linejoin="miter" stroke-miterlimit="10" stroke-dasharray="" stroke-dashoffset="0" font-family="Sans Serif" font-weight="normal" text-anchor="start" style="mix-blend-mode: normal"><tspan x="0" dy="0">I have read the terms and conditions.</tspan></text></g></g></svg>