<svg version="1.1" xmlns="http://www.w3.org/2000/svg" xmlns:xlink="http://www.w3.org/1999/xlink" width="220.87902" height="142.64323" viewBox="0,0,220.87902,142.64323"><g transform="translate(-209.56049,-108.36135)"><g data-paper-data="{&quot;isPaintingLayer&quot;:true}" fill-rule="nonzero" stroke="none" stroke-linecap="butt" stroke-linejoin="miter" stroke-miterlimit="10" stroke-dasharray="" stroke-dashoffset="0" style="mix-blend-mode: normal"><path d="M209.56049,122.7492h220.87902v125.17454h-220.87902z" data-paper-data="{&quot;index&quot;:null}" fill="#282828" stroke-width="1"/><path d="M209.56049,114.81322c0,-3.21308 2.60471,-5.8178 5.8178,-5.8178h209.24342c3.2131,0 5.8178,2.60471 5.8178,5.8178v11.35061h-220.87902z" data-paper-data="{&quot;index&quot;:null}" fill="#121212" stroke-width="1"/><path d="M209.56049,243.1209h220.87902v2.06588c0,3.21309 -2.6047,5.8178 -5.8178,5.8178h-209.24342c-3.21309,0 -5.8178,-2.60472 -5.8178,-5.8178z" data-paper-data="{&quot;index&quot;:null}" fill="#282828" stroke-width="1"/><path d="M408.63026,114.81322c0,-3.21308 2.60471,-5.8178 5.8178,-5.8178h10.17365c3.2131,0 5.8178,2.60471 5.8178,5.8178v11.35061h-21.80925z" data-paper-data="{&quot;index&quot;:null}" fill="#1c1c1c" stroke-width="1"/><text transform="translate(220.76405,122.98779) scale(0.33624,0.33624)" font-size="40" xml:space="preserve" fill="#ffffff" fill-rule="nonzero" stroke="none" stroke-width="1" stroke-linecap="butt" stroke-linejoin="miter" stroke-miterlimit="10" stroke-dasharray="" stroke-dashoffset="0" font-family="Sans Serif" font-weight="normal" text-anchor="start" style="mix-blend-mode: normal"><tspan x="0" dy="0">WARNING</tspan></text><text transform="translate(246.16544,145.46628) scale(0.33108,0.33108)" font-size="40" xml:space="preserve" fill="#ffffff" fill-rule="nonzero" stroke="none" stroke-width="1" stroke-linecap="butt" stroke-linejoin="miter" stroke-miterlimit="10" stroke-dasharray="" stroke-dashoffset="0" font-family="Sans Serif" font-weight="normal" text-anchor="start" style="mix-blend-mode: normal"><tspan x="0" dy="0">Saving this file will</tspan><tspan x="0" dy="46.150000000000006px">override a file with the</tspan><tspan x="0" dy="46.150000000000006px">same name.</tspan><tspan x="0" dy="46.150000000000006px">Confirm this acction:</tspan></text><path d="M228.55481,237.14497c0,-4.84469 0,-13.68392 0,-16.70092c0,-1.97994 2.05669,-4.35718 4.47341,-4.35718c7.45933,0 46.44096,-0.12847 59.35252,-0.12847c2.61314,0 4.15843,2.18398 4.15843,3.97177c0,2.81544 0,11.32127 0,16.44399c0,2.38695 -1.55002,4.03938 -3.38762,4.03938c-7.0841,0 -51.87743,0 -62.3073,0c-1.38428,0 -2.28945,-1.30679 -2.28945,-3.26857z" fill="#69ff5f" stroke-width="0"/><text transform="translate(239.92232,232.6203) scale(0.34194,0.34194)" font-size="40" xml:space="preserve" fill="#ffffff" fill-rule="nonzero" stroke="none" stroke-width="1" stroke-linecap="butt" stroke-linejoin="miter" stroke-miterlimit="10" stroke-dasharray="" stroke-dashoffset="0" font-family="Sans Serif" font-weight="normal" text-anchor="start" style="mix-blend-mode: normal"><tspan x="0" dy="0">Accept</tspan></text><path d="M341.00323,237.14497c0,-4.8447 0,-13.68392 0,-16.70093c0,-1.97994 2.05669,-4.35718 4.47341,-4.35718c7.45933,0 46.44096,-0.12846 59.35251,-0.12846c2.61314,0 4.15843,2.18398 4.15843,3.97177c0,2.81544 0,11.32127 0,16.44399c0,2.38695 -1.55002,4.03938 -3.38761,4.03938c-7.08409,0 -51.87743,0 -62.3073,0c-1.38428,0 -2.28944,-1.30679 -2.28944,-3.26857z" fill="#ff5e5e" stroke-width="0"/><text transform="translate(351.68298,232.6203) scale(0.34194,0.34194)" font-size="40" xml:space="preserve" fill="#ffffff" fill-rule="nonzero" stroke="none" stroke-width="1" stroke-linecap="butt" stroke-linejoin="miter" stroke-miterlimit="10" stroke-dasharray="" stroke-dashoffset="0" font-family="Sans Serif" font-weight="normal" text-anchor="start" style="mix-blend-mode: normal"><tspan x="0" dy="0">Decline</tspan></text></g></g></svg>