<svg version="1.1" xmlns="http://www.w3.org/2000/svg" xmlns:xlink="http://www.w3.org/1999/xlink" width="423.06341" height="63.48061" viewBox="0,0,423.06341,63.48061"><defs><linearGradient x1="276.50435" y1="199.94718" x2="276.50435" y2="213.7949" gradientUnits="userSpaceOnUse" id="color-1"><stop offset="0" stop-color="#000000" stop-opacity="0.48235"/><stop offset="1" stop-color="#000000" stop-opacity="0"/></linearGradient><linearGradient x1="473.599" y1="176.73571" x2="485.86801" y2="176.73571" gradientUnits="userSpaceOnUse" id="color-2"><stop offset="0" stop-color="#000000" stop-opacity="0.48235"/><stop offset="1" stop-color="#000000" stop-opacity="0"/></linearGradient><linearGradient x1="430.58174" y1="176.73571" x2="439.06401" y2="176.73571" gradientUnits="userSpaceOnUse" id="color-3"><stop offset="0" stop-color="#000000" stop-opacity="0.48235"/><stop offset="1" stop-color="#000000" stop-opacity="0"/></linearGradient></defs><g transform="translate(-108.60287,-150.31429)"><g data-paper-data="{&quot;isPaintingLayer&quot;:true}" fill-rule="nonzero" stroke-linejoin="miter" stroke-miterlimit="10" stroke-dasharray="" stroke-dashoffset="0" style="mix-blend-mode: normal"><path d="M108.62667,213.7949l-0.0238,-13.84772h422.76v13.84772z" data-paper-data="{&quot;index&quot;:null}" fill="url(#color-1)" stroke="none" stroke-width="NaN" stroke-linecap="butt"/><path d="M323.22307,200.65981v-47.95731h199.59965l8.84356,47.95731z" data-paper-data="{&quot;index&quot;:null}" fill="#ff3838" stroke="none" stroke-width="NaN" stroke-linecap="butt"/><path d="M485.86801,200.81932h-12.26901v-48.16722h12.26901z" fill="url(#color-2)" stroke="none" stroke-width="0" stroke-linecap="butt"/><path d="M275.1367,200.6598v-47.95731h199.59965l8.84355,47.95731z" data-paper-data="{&quot;index&quot;:null}" fill="#00ff38" stroke="none" stroke-width="NaN" stroke-linecap="butt"/><path d="M439.06401,200.81932h-8.48228v-48.16722h8.48228z" fill="url(#color-3)" stroke="none" stroke-width="0" stroke-linecap="butt"/><path d="M211.57448,201.90591l9.3458,-50.68092h210.93541v50.68092z" data-paper-data="{&quot;index&quot;:null}" fill="#ffde00" stroke="none" stroke-width="NaN" stroke-linecap="butt"/><path d="M113.31484,202.93466v-52.62037h259.73378l9.34579,52.62037z" data-paper-data="{&quot;index&quot;:null}" fill="#1f1f1f" stroke="none" stroke-width="NaN" stroke-linecap="butt"/><path d="M402.17426,167.23295c0,0 -4.35677,0 -5.9151,0c-0.81194,0 -1.19464,-0.65783 -0.68237,-1.1701c0.97988,-0.97988 4.28137,-4.28137 4.28137,-4.28137c0,0 3.37734,3.37733 4.36775,4.36775c0.51052,0.51052 0.51695,1.16051 0.00983,1.16051c-0.98912,0 -4.37757,0 -4.37757,0v19.34889" fill="#ffffff" stroke="#ffffff" stroke-width="4" stroke-linecap="round"/><path d="M412.45116,164.4054v19.3489c0,0 3.38844,0 4.37757,0c0.50712,0 0.5007,0.64999 -0.00982,1.16051c-0.99041,0.99042 -4.36775,4.36775 -4.36775,4.36775c0,0 -3.30149,-3.30149 -4.28137,-4.28137c-0.51227,-0.51227 -0.12957,-1.1701 0.68237,-1.1701c1.55833,0 5.9151,0 5.9151,0" data-paper-data="{&quot;index&quot;:null}" fill="#ffffff" stroke="#ffffff" stroke-width="4" stroke-linecap="round"/><text transform="translate(230.46258,181.73649) scale(0.5,0.5)" font-size="40" xml:space="preserve" fill="#ffffff" fill-rule="nonzero" stroke="none" stroke-width="1" stroke-linecap="butt" stroke-linejoin="miter" stroke-miterlimit="10" stroke-dasharray="" stroke-dashoffset="0" font-family="Sans Serif" font-weight="normal" text-anchor="start" style="mix-blend-mode: normal"><tspan x="0" dy="0">Trade request</tspan></text><path d="M466.58983,170.21132l-15.5256,15.5256l-7.19479,-7.19479" fill="none" stroke="#ffffff" stroke-width="4" stroke-linecap="round"/><g fill="none" stroke="#ffffff" stroke-width="4" stroke-linecap="round"><path d="M494.19688,186.72261l19.42784,-19.42784"/><path d="M513.76705,186.65145l-17.86223,-17.86223"/></g></g></g></svg>