<svg version="1.1" xmlns="http://www.w3.org/2000/svg" xmlns:xlink="http://www.w3.org/1999/xlink" width="353.03478" height="216.76898" viewBox="0,0,353.03478,216.76898"><g transform="translate(-82.13073,-105.45476)"><g data-paper-data="{&quot;isPaintingLayer&quot;:true}" fill-rule="nonzero" stroke-linejoin="miter" stroke-miterlimit="10" stroke-dasharray="" stroke-dashoffset="0" style="mix-blend-mode: normal"><path d="M85.00892,132.04794c0,0 0.0218,-6.80038 0.94498,-14.00205c0.30231,-2.35832 7.00302,-9.32789 7.00302,-9.32789c0,0 289.69804,-0.34714 323.42947,-0.19561c6.16653,0.0277 12.15253,4.89616 12.15253,4.89616c0,0 3.31286,4.28834 3.44589,6.16779c0.40543,5.72754 -0.71945,12.46159 -0.71945,12.46159z" fill="#141414" stroke="none" stroke-width="0" stroke-linecap="butt"/><path d="M84.63074,304.67049c0,0 0,-150.8069 0,-181.82229c0,-7.91108 6.47653,-14.89344 14.4506,-14.89344c32.62421,0 251.5706,0 315.86525,0c11.21018,0 17.71892,6.39742 17.71892,13.77561c0,30.15027 0,182.94012 0,182.94012z" data-paper-data="{&quot;index&quot;:null}" fill="none" stroke="#1f1f1f" stroke-width="5" stroke-linecap="butt"/><path d="M86.05276,317.08878v-22.44733h346.25644v22.44733z" fill="#141414" stroke="none" stroke-width="0" stroke-linecap="butt"/><path d="M86.20073,133.32037h344.42065" fill="none" stroke="#1f1f1f" stroke-width="5" stroke-linecap="round"/><path d="M85.05698,293.60634h345.79511" fill="none" stroke="#1f1f1f" stroke-width="5" stroke-linecap="round"/><path d="M432.66552,132.44058c0,0 0,141.37433 0,172.38972c0,7.91108 -6.47653,14.89344 -14.4506,14.89344c-32.62421,0 -251.5706,0 -315.86525,0c-11.21018,0 -17.71892,-6.39742 -17.71892,-13.77561c0,-30.15027 0,-173.50755 0,-173.50755z" data-paper-data="{&quot;index&quot;:null}" fill="none" stroke="#1f1f1f" stroke-width="5" stroke-linecap="butt"/></g></g></svg>