<svg version="1.1" xmlns="http://www.w3.org/2000/svg" xmlns:xlink="http://www.w3.org/1999/xlink" width="1502.63913" height="1651.49006" viewBox="0,0,1502.63913,1651.49006"><g transform="translate(431.31957,645.74503)"><g data-paper-data="{&quot;isPaintingLayer&quot;:true}" fill="#ffffff" fill-rule="nonzero" stroke="none" stroke-width="0" stroke-linecap="butt" stroke-linejoin="miter" stroke-miterlimit="10" stroke-dasharray="" stroke-dashoffset="0" style="mix-blend-mode: normal"><path d="M-431.31957,802.36317c0,-254.05892 0,-1085.05714 0,-1085.05714h1502.63913c0,0 0,785.02571 0,1042.07758c0,113.83193 -29.57832,246.36142 -279.28385,246.36142c-263.91804,0 -845.47164,0 -986.73851,0c-158.40469,0 -236.61662,-94.31771 -236.61662,-203.38186z"/><path d="M1071.31957,-442.36317c0,254.05892 0,1085.05714 0,1085.05714h-1502.63913c0,0 0,-785.02571 0,-1042.07758c0,-113.83193 29.57832,-246.36142 279.28385,-246.36142c263.91804,0 845.47164,0 986.73851,0c146.13031,0 224.01411,80.26707 235.20691,178.33102c0.94009,8.23702 1.40985,16.59972 1.40985,25.05084z"/></g></g></svg>