<svg version="1.1" xmlns="http://www.w3.org/2000/svg" xmlns:xlink="http://www.w3.org/1999/xlink" width="800" height="566.10029" viewBox="0,0,800,566.10029"><g transform="translate(-9.4995,-66.45022)"><g data-paper-data="{&quot;isPaintingLayer&quot;:true}" fill-rule="nonzero" stroke="none" stroke-linecap="butt" stroke-linejoin="miter" stroke-miterlimit="10" stroke-dasharray="" stroke-dashoffset="0" style="mix-blend-mode: normal"><path d="M809.4995,232.59997v233.80079c0,91.76206 -74.38769,166.14975 -166.14975,166.14975h-467.7005c-91.76206,0 -166.14975,-74.38769 -166.14975,-166.14975v-233.80079c0,-91.76206 74.38769,-166.14975 166.14975,-166.14975h467.7005c91.76206,0 166.14975,74.38769 166.14975,166.14975zM531.17299,345.11512l-218.75874,-110.85616c-5.8412,-2.96051 -12.75138,1.28416 -12.75138,7.83339v215.19086c0,6.45725 6.73317,10.70714 12.56223,7.9271l218.75874,-104.3347c6.58046,-3.13752 6.69326,-12.46505 0.18915,-15.76049z" fill="#f61c0d" stroke-width="1"/><path d="M531.03359,360.88053l-218.84224,104.36668c-5.82905,2.78004 -12.56546,-1.47309 -12.56546,-7.93034l0,-215.25818c0,-6.54923 6.91343,-10.79716 12.75464,-7.83665l218.84242,110.89106c6.50411,3.29544 6.39111,12.6299 -0.18936,15.76742z" data-paper-data="{&quot;noHover&quot;:false,&quot;origItem&quot;:[&quot;Path&quot;,{&quot;applyMatrix&quot;:true,&quot;segments&quot;:[[[531.17299,345.11512],[6.50411,3.29544],[0,0]],[[312.41424,234.25897],[0,0],[-5.8412,-2.96051]],[[299.66286,242.09235],[0,-6.54923],[0,0]],[[299.66286,457.28321],[0,0],[0,6.45725]],[[312.22509,465.21031],[-5.82905,2.78004],[0,0]],[[530.98383,360.87561],[0,0],[6.58046,-3.13752]]],&quot;closed&quot;:true,&quot;fillColor&quot;:[0,0,0,1]}]}" fill="#ffffff" stroke-width="0.5"/></g></g></svg>