<svg version="1.1" xmlns="http://www.w3.org/2000/svg" xmlns:xlink="http://www.w3.org/1999/xlink" width="390.00066" height="116.33048" viewBox="0,0,390.00066,116.33048"><g transform="translate(-45.7837,-121.83476)"><g data-paper-data="{&quot;isPaintingLayer&quot;:true}" fill-rule="nonzero" stroke-linejoin="miter" stroke-miterlimit="10" stroke-dasharray="" stroke-dashoffset="0" style="mix-blend-mode: normal"><path d="M45.7837,180c0,-32.12377 27.19686,-58.16524 60.7459,-58.16524c33.54904,0 60.7459,26.04146 60.7459,58.16524c0,32.12377 -27.19686,58.16524 -60.7459,58.16524c-33.54904,0 -60.7459,-26.04147 -60.7459,-58.16524z" fill="#ffffff" stroke="none" stroke-width="0" stroke-linecap="butt"/><path d="M73.48729,205.19442c0,-13.53429 0,-44.24964 0,-51.29365c0,-2.81956 2.83445,-5.53934 5.69871,-5.53934c7.55901,0 41.94407,0 55.17557,0c3.23896,0 5.21034,2.81474 5.21034,5.26794c0,6.88114 0,39.62807 0,52.65063c0,3.32047 -2.21533,5.35858 -4.64347,5.35858c-7.0553,0 -42.04312,0 -55.83692,0c-3.47444,0 -5.60422,-2.48813 -5.60422,-6.44416z" fill="#ffffff" stroke="#000000" stroke-width="6.5" stroke-linecap="butt"/><path d="M110.34486,165.5078v26.78206" fill="none" stroke="#000000" stroke-width="6.5" stroke-linecap="round"/><path d="M125.28828,166.37174v25.05417" fill="none" stroke="#000000" stroke-width="6.5" stroke-linecap="round"/><text transform="translate(177.93245,191.50363) scale(1.0413,0.99706)" font-size="40" xml:space="preserve" fill="#ffffff" fill-rule="nonzero" stroke="#ffffff" stroke-width="1" stroke-linecap="butt" stroke-linejoin="miter" stroke-miterlimit="10" stroke-dasharray="" stroke-dashoffset="0" font-family="Sans Serif" font-weight="normal" text-anchor="start" style="mix-blend-mode: normal"><tspan x="0" dy="0">WorldSprites</tspan></text></g></g></svg>